# xmcd CD database file
#
# Track frame offsets:
#	150
#	47766
#	108629
#	152635
#	178783
#
# Disc length: 2624 seconds
#
# Revision: 0
# Processed by: cddbd v1.5.2PL0 Copyright (c) Steve Scherf et al.
# Submitted via: CDex 1.51
#
DISCID=3c0a3e05
DTITLE=Rory Gallagher - Cowtown Ballroom KC, Kansas [CD2)
DYEAR=1974
DGENRE=Blues
TTITLE0=Hands Off
TTITLE1=Laundromat
TTITLE2=Handy Man
TTITLE3=Too Much Alcohol
TTITLE4=Pistol Slapper Blues
EXTD=YEAR: 1974
EXTT0=
EXTT1=
EXTT2=
EXTT3=
EXTT4=
PLAYORDER=
